<svg xmlns="http://www.w3.org/2000/svg" viewBox="0 0 47.94 53.4"><defs><style>.cls-1{fill:#de7045;}.cls-2{fill:#b90c00;}.cls-3{fill:#ccdbab;}</style></defs><title>hotline</title><g id="Layer_2" data-name="Layer 2"><g id="screen_2" data-name="screen 2"><path class="cls-1" d="M16.55,5.78l26.53.09c4.16,0,4.84.66,4.84,4.71q0,17,0,34c0,4-.69,4.69-4.84,4.7l-26.53.09Q16.55,27.58,16.55,5.78Zm6.08,13.31h19V12h-19Z"/><path class="cls-2" d="M16.55,5.78q0,21.8,0,43.61a3.52,3.52,0,0,1-3.41,3.75,46.55,46.55,0,0,1-9.55,0C.58,52.76,0,51.67,0,48.49c0-9,0-17.91,0-26.86C0,16.16,0,10.69,0,5.22,0,2,.69.91,3.92.38A28.54,28.54,0,0,1,12,.21C15.63.67,16.3,1.8,16.55,5.78Z"/><path class="cls-3" d="M22.62,19.09V12h19v7Z"/><rect x="37.58" y="25.05" width="4" height="4" rx="0.5" ry="0.5"/><rect x="30.14" y="25.05" width="4" height="4" rx="0.5" ry="0.5"/><rect x="22.69" y="25.05" width="4" height="4" rx="0.5" ry="0.5"/><rect x="37.58" y="32.54" width="4" height="4" rx="0.5" ry="0.5"/><rect x="30.14" y="32.54" width="4" height="4" rx="0.5" ry="0.5"/><rect x="22.69" y="32.54" width="4" height="4" rx="0.5" ry="0.5"/><rect x="37.58" y="40.03" width="4" height="4" rx="0.5" ry="0.5"/><rect x="30.14" y="40.03" width="4" height="4" rx="0.5" ry="0.5"/><rect x="22.69" y="40.03" width="4" height="4" rx="0.5" ry="0.5"/></g></g></svg>