<svg xmlns="http://www.w3.org/2000/svg" viewBox="0 0 81.46 80"><defs><style>.cls-1{fill:#fefefe;}.cls-2{fill:#baddf9;}.cls-3{fill:#3f51b4;}.cls-4{fill:#fe9801;}.cls-5{fill:#e57e7e;}.cls-6{fill:#b2bec3;}.cls-7{fill:#fcbf15;}.cls-8{fill:#606553;}.cls-9{fill:#1976d1;}</style></defs><title>notes</title><g id="Layer_2" data-name="Layer 2"><g id="screen_1" data-name="screen 1"><path class="cls-1" d="M38.23,73.5,36.08,80l6.55-2.1L49,75.6l7-6.28H69.18V56.22L73.29,51l4.13-4.16c2.39-.6,3.72-2.1,4-4.82-2.33-2.86-4.52-6-8.48-7.65l-3.59,2.81-.29-27.1V.9C62.93-.49,3.74-.18,0,1.23v8.89Q0,39.26.1,68.39c0,.13.2.26.31.38l.57.58H38.76Z"/><path class="cls-2" d="M38.76,69.34H1l-.57-.58C.3,68.64.1,68.51.1,68.39Q0,39.26,0,10.13H69.09l.29,27.1-.09,1.52-4.2,4.11L40.51,67.1ZM22.51,24.12H54.65v-3.4H22.51Zm32.18,4.79H22.27l.51,3.48H54.69ZM22.55,40.47H55L54.46,37H22.55Zm0,8.35H52.66l2.76-3.58H22.51Zm0,8.13h21.9l3.31-3.64H22.52Z"/><path class="cls-3" d="M69.09,10.13H0V1.23C3.74-.18,62.93-.49,69.09.9Z"/><path class="cls-4" d="M40.51,67.1,65.1,42.85,73.29,51l-4.11,5.17L56.07,69.32,49,75.6Z"/><path class="cls-2" d="M56.07,69.32,69.18,56.22V69.32Z"/><path class="cls-5" d="M69.29,38.74l.09-1.52L73,34.41c4,1.66,6.16,4.79,8.48,7.65-.32,2.72-1.65,4.23-4,4.82Z"/><path class="cls-6" d="M69.29,38.74l8.13,8.14L73.29,51l-8.19-8.2Z"/><path class="cls-7" d="M40.51,67.1,49,75.6l-6.41,2.3-4.39-4.4.52-4.16Z"/><path class="cls-8" d="M38.23,73.5l4.39,4.4L36.08,80Z"/><path class="cls-9" d="M22.51,24.12v-3.4H54.65v3.4Z"/><path class="cls-9" d="M54.69,28.92V32.4H22.78l-.51-3.48Z"/><path class="cls-9" d="M22.55,40.47V37H54.46L55,40.47Z"/><path class="cls-9" d="M22.51,48.81V45.23h32.9l-2.76,3.58Z"/><path class="cls-9" d="M22.52,56.95V53.31H47.73l-3.31,3.64Z"/></g></g></svg>