<svg xmlns="http://www.w3.org/2000/svg" xmlns:xlink="http://www.w3.org/1999/xlink" viewBox="0 0 141.51 141.51"><defs><style>.cls-1{fill:none;}.cls-2{clip-path:url(#clip-path);}.cls-3{fill:#2f55d4;}.cls-4{fill:#fdfdfd;}.cls-5{fill:#347aff;}.cls-6{fill:#b95543;}</style><clipPath id="clip-path" transform="translate(0 0)"><rect class="cls-1" width="141.51" height="141.51"/></clipPath></defs><title>careway_logo</title><g id="Layer_2" data-name="Layer 2"><g id="misc"><g id="Artwork_11" data-name="Artwork 11"><g class="cls-2"><g class="cls-2"><path class="cls-3" d="M0,70.76a70.76,70.76,0,1,1,70.76,70.76A70.76,70.76,0,0,1,0,70.76" transform="translate(0 0)"/><path class="cls-4" d="M109.76,55.31c.42.38.88.83,1.36,1.23a17.59,17.59,0,0,1,3.82,4.9A42.64,42.64,0,0,1,117.83,68a63.49,63.49,0,0,1,2.47,9.18c.39,1.86.53,3.77.77,5.66.18,1.4.35,2.8.49,4.2,0,.39-.12.8-.11,1.19.05,3.18.15,6.36.17,9.55,0,3.35,0,6.7,0,10.06,0,.64-.44.92-.94,1.11-2.29.88-4.62,1.68-6.88,2.62a41.34,41.34,0,0,1-9.07,2.16,50.19,50.19,0,0,1-14.5-.22,48.39,48.39,0,0,1-9-1.83c-1.13-.4-2.11.12-3.11.41-2.19.62-4.33,1.49-6.55,1.94a55.14,55.14,0,0,1-7.74,1.22,55.64,55.64,0,0,1-6.82.26c-1.9,0-3.8-.17-5.71-.28-1.1-.06-2.2-.08-3.28-.22-2.71-.37-5.42-.74-8.12-1.21a54.06,54.06,0,0,1-8.52-2.26,13.7,13.7,0,0,1-1.95-.94,2,2,0,0,1-.93-1.93c0-2.51,0-5,0-7.54,0-1.48-.05-3,0-4.43A85.54,85.54,0,0,1,29.25,85c.27-1.5.36-3,.64-4.52.23-1.21.62-2.4.93-3.59s.63-2.28.89-3.43a1.16,1.16,0,0,0-.24-.76c-.33-.51-.72-1-1.07-1.48-1.37-2-1.32-4.17-.86-6.41a17.6,17.6,0,0,1,3.12-6.43c.82-1.18,1.77-2.28,2.66-3.41a4.22,4.22,0,0,1,.3-.31,2.25,2.25,0,0,0,.57-2.76,17.3,17.3,0,0,1-1.54-8,22.13,22.13,0,0,1,3.07-10.32,23.79,23.79,0,0,1,4.86-5.61A19,19,0,0,1,50.44,24a24.37,24.37,0,0,1,7.73-.67A17.68,17.68,0,0,1,68.71,27.5c.61.53,1.27,1,1.89,1.52a17.33,17.33,0,0,1,4.62,6.31,23.35,23.35,0,0,1,1.19,3,25.81,25.81,0,0,1,.68,3.2c.17,1,.25,2,.38,3.1,1.22-.1-6.09-.2-4.89-.3a17.44,17.44,0,0,1,1.93-9.43A22.18,22.18,0,0,1,82.72,26a17.84,17.84,0,0,1,4.8-1.93,22.65,22.65,0,0,1,6.25-.75,20.9,20.9,0,0,1,6.34,1.27,18.82,18.82,0,0,1,8.5,6.08,21.18,21.18,0,0,1,4.47,9.55,19.33,19.33,0,0,1-1.5,11.39c-.5,1.19-1.14,2.32-1.82,3.69m-1.92,2.61c-.5.4-.88.67-1.21,1a17.76,17.76,0,0,1-8,4.2,23.54,23.54,0,0,1-7.37.73A19.52,19.52,0,0,1,86.54,63a20.26,20.26,0,0,1-5.67-2.93,18,18,0,0,1-5.57-6.26l-.09-.17s-.3,1.63-2.86,4.28A14.73,14.73,0,0,1,73.57,59a48.09,48.09,0,0,1,3.33,4,25.64,25.64,0,0,1,2.87,4.92,34.68,34.68,0,0,1,2.57,10c.21,2.44.65,4.87.77,7.31.22,4.64.32,9.3.42,13.94.06,2.72.05,5.44,0,8.16a1.16,1.16,0,0,0,.8,1.26,42.84,42.84,0,0,0,5.82,1.73c4.24,1.06,11.41.28,12.73,0,3.66-.77,7.35-.81,10.81-2.4,1.26-.57,2.56-1,3.86-1.52a1,1,0,0,0,.71-1.11c-.07-3.07-.11-6.15-.14-9.22,0-1.5,0-3,0-4.49s-.08-2.83-.18-4.24c-.12-1.64-.41-3.27-.44-4.91a25.51,25.51,0,0,0-.94-6.22c-.66-2.44-1.32-4.89-2.18-7.27a31,31,0,0,0-3.84-7.64c-.82-1.14-1.75-2.21-2.71-3.4M55.58,62.65a21.71,21.71,0,0,0,6.72-1.06,16.6,16.6,0,0,0,9.17-7.13,21.2,21.2,0,0,0,2.24-5.61,17.65,17.65,0,0,0,0-9.15,17.28,17.28,0,0,0-1.42-3.61,15.21,15.21,0,0,0-1.87-3A18.39,18.39,0,0,0,65,28.4a15.74,15.74,0,0,0-6.09-2.09,20.38,20.38,0,0,0-9,1.07c-.3.11-.6.21-.9.31a14.21,14.21,0,0,0-6.16,3.89,16.92,16.92,0,0,0-4.46,8.1c-.58,2.82-1,5.63-.31,8.48a24.69,24.69,0,0,0,2.31,5.68,16.89,16.89,0,0,0,6.91,6.76,17.24,17.24,0,0,0,8.31,2.06m11.55,8.59a11.81,11.81,0,0,0-1.26-1.29,4.43,4.43,0,0,0-1.51-.79c-1.51-.39-3.29,1.07-3,2.47a4.25,4.25,0,0,0,.88,1.94c1.41,1.56,2.93,3,4.42,4.52a4.25,4.25,0,0,0,.89.83c.2-.31.69-.59.91-.86,1-1.2,2-2.35,2.86-3.59a10.7,10.7,0,0,0,1.38-2.58,2.23,2.23,0,0,0-2.19-3,2.87,2.87,0,0,0-2.18.9c-.39.41-.74.87-1.2,1.43M38.25,56.38a13.33,13.33,0,0,0-1.27,1,18.3,18.3,0,0,0-3.49,4.82,11.87,11.87,0,0,0-1.4,5.39,2.84,2.84,0,0,0,1.07,2.23,56.53,56.53,0,0,1,6.45-11.55l-1.37-1.91" transform="translate(0 0)"/><path class="cls-5" d="M107.84,57.91c1,1.19,1.88,2.25,2.7,3.4A30.93,30.93,0,0,1,114.39,69c.86,2.38,1.52,4.83,2.18,7.27a25.54,25.54,0,0,1,.94,6.22c0,1.64.32,3.27.44,4.91.1,1.41.15,2.83.18,4.24s0,3,0,4.49c0,3.07.07,6.15.14,9.22a1,1,0,0,1-.71,1.11c-1.3.48-2.6.95-3.86,1.52-3.46,1.58-7.23,1.94-10.88,2.71a32.22,32.22,0,0,1-4,.43,30.26,30.26,0,0,1-4,.22,48.16,48.16,0,0,1-7.75-1.13c-1.65-.38-.09.17-2.21-.89a2.78,2.78,0,0,1-1.32-1.92c0-2.72,0-5.44,0-8.16-.1-4.65-.19-9.3-.42-13.94-.12-2.44-.56-4.87-.77-7.31a34.6,34.6,0,0,0-2.57-10A25.49,25.49,0,0,0,76.9,63a48.33,48.33,0,0,0-3.33-4,14.25,14.25,0,0,0-1.22-1.11,26.4,26.4,0,0,0,3-4.6s-.64-1,0,0c1.27,2,3.49,5.29,5.51,6.73A20.31,20.31,0,0,0,86.54,63a19.56,19.56,0,0,0,4.76.82,23.6,23.6,0,0,0,7.37-.73,17.75,17.75,0,0,0,8-4.2c.33-.31.71-.58,1.21-1" transform="translate(0 0)"/><path class="cls-5" d="M55.58,62.65a17.23,17.23,0,0,1-8.31-2.06,16.89,16.89,0,0,1-6.91-6.76,24.69,24.69,0,0,1-2.31-5.68c-.72-2.86-.28-5.66.31-8.48a16.9,16.9,0,0,1,4.46-8.1A14.22,14.22,0,0,1,49,27.68c.3-.1.6-.2.9-.31a20.41,20.41,0,0,1,9-1.07A15.77,15.77,0,0,1,65,28.39a18.42,18.42,0,0,1,5.4,4.69,15.18,15.18,0,0,1,1.87,3,17.46,17.46,0,0,1,1.43,3.6,17.67,17.67,0,0,1,0,9.15,21.15,21.15,0,0,1-2.24,5.61,16.6,16.6,0,0,1-9.17,7.14,21.71,21.71,0,0,1-6.72,1.06" transform="translate(0 0)"/><path class="cls-5" d="M38.25,56.38l1.37,1.91a56.53,56.53,0,0,0-6.45,11.55,2.84,2.84,0,0,1-1.07-2.23,11.87,11.87,0,0,1,1.4-5.39A18.3,18.3,0,0,1,37,57.39a13.33,13.33,0,0,1,1.27-1" transform="translate(0 0)"/><path class="cls-6" d="M67.13,71.23c.46-.56.81-1,1.2-1.43a2.87,2.87,0,0,1,2.18-.9,2.23,2.23,0,0,1,2.19,3,10.67,10.67,0,0,1-1.38,2.58c-.89,1.24-1.91,2.39-2.86,3.59-.21.27-.21.17-.91.86a4.29,4.29,0,0,1-.89-.83c-1.49-1.49-3-3-4.42-4.52a4.25,4.25,0,0,1-.89-1.94c-.29-1.4,1.49-2.85,3-2.47a4.43,4.43,0,0,1,1.51.79,11.89,11.89,0,0,1,1.26,1.29" transform="translate(0 0)"/></g></g></g></g></g></svg>