<svg xmlns="http://www.w3.org/2000/svg" viewBox="0 0 140.72 121.75"><defs><style>.cls-1{fill:#fe5a28;}.cls-2{fill:#12adf3;}.cls-3{fill:#fec311;}.cls-4{fill:#9f30b2;}.cls-5{fill:#01bbd2;}.cls-6{fill:#fe4080;}.cls-7{fill:#22c2d7;}.cls-8{fill:#fcc726;}.cls-9{fill:#fafcfe;}.cls-10{fill:#23adef;}.cls-11{fill:#27b4f3;}.cls-12{fill:#fe6695;}.cls-13{fill:#a743ba;}.cls-14{fill:#fd5725;}.cls-15{fill:#f95992;}.cls-16{fill:#a648bc;}.cls-17{fill:#ed5e37;}.cls-18{fill:#f9fcf9;}</style></defs><title>collaborate_1</title><g id="Layer_2" data-name="Layer 2"><g id="screen_2" data-name="screen 2"><path class="cls-1" d="M36.34,120.48,0,61l11.2-.08,13.39,20.8,3.55,2.57H39.67V67.6l.14-13.47-.16-5.55.11-16.26V28.7l0-13.5,2-5.12a3.89,3.89,0,0,1,1.53.34l.28,4.92,0,11.51v3.86c-.07,5.81.08,11.63-.29,17.42a9.81,9.81,0,0,0,4.92,9.7c-4.28,2-5.69,5.32-4.56,9.83V84.73H65.29l-1.85,3.14A3.64,3.64,0,0,0,62,88.2H43.6v19.63L42,111.44ZM28,88.22l11.59,18.69V88.22Z"/><path class="cls-2" d="M104.59,1.49l36.13,59.4H129.56L118.72,43.71l-1.88.35-7.55,33.26-.17,6.84-2.89,3.74-2,12.16L99,111.65H97.27l0-5.1L102,88l.5-3.44,1.88-8.05,1.3-4,7.65-29.44-2-1.05L95.8,57.52,94,55.57l19.23-21.5-14-21.59-.2-.74A2.52,2.52,0,0,1,99,10.53Z"/><path class="cls-3" d="M41.79,10.07l-2,5.12L30,29.51l1.14,1.28,8.63-2.1v3.62L27.69,36.8l-3.08,2.79L11.2,60.89,0,61C8.83,46.09,17.59,31.19,26.51,16.38,29.67,11.14,33.22,6.13,36.59,1Z"/><path class="cls-4" d="M99,111.65l5.2-11.59,8.31-11.9,1.78-3.62.09-1.93c1.35-1.27,3-2.33,4-3.84,3.84-5.89,7.46-11.91,11.16-17.89h11.16c-8.77,14.79-17.48,29.62-26.34,44.35-3.14,5.21-6.65,10.2-10,15.29Z"/><path class="cls-5" d="M41.79,10.07,36.59,1a33.76,33.76,0,0,1,5.64-1q28.1-.11,56.21,0c2.05,0,4.1.92,6.16,1.41l-5.61,9-9.3-.1H43.32A3.89,3.89,0,0,0,41.79,10.07Z"/><path class="cls-6" d="M99,111.65l5.35,8.87c-1.54.41-3.08,1.17-4.63,1.17q-29.41.12-58.82,0c-1.53,0-3.06-.79-4.59-1.21l5.63-9,4.49-.12,49.23.2a6,6,0,0,0,1.58.11Z"/><path class="cls-7" d="M48.62,63.75l-5,3.9c-1.13-4.51.28-7.83,4.56-9.83L67.06,38.91,70.15,36,87.39,17l-.08,0,3.42-1.79,6.75-1.77L73,39.14l-2.76,3L51.6,60.78Z"/><path class="cls-8" d="M97.48,13.46l-6.75,1.77L87.31,17l.08,0L60,25.63l-3.72,1.54L43.57,30.71V26.85L52,23.69l3.92-1.42,33.8-11.84,9.3.1A2.52,2.52,0,0,0,99,11.74l-1.71,1.83Z"/><path class="cls-9" d="M62,88.2,43.6,107.83"/><path class="cls-10" d="M65.29,84.73l2.09-2.15,2.82-3L88.09,60.67l2.67-3.07,3.21-2,1.84,1.95-1.9,3.29-2.9,3L73.21,82.95l-4.58,4.8-2.92.37-2.27-.25Z"/><path class="cls-11" d="M63.44,87.86l2.27.25a36.21,36.21,0,0,1-3.31,5.46c-5.22,6-10.62,11.85-15.95,17.76l-4.49.12,1.64-3.61L62,88.2A3.64,3.64,0,0,1,63.44,87.86Z"/><path class="cls-7" d="M39.67,72.73,28.15,84.26l-3.55-2.57L39.68,67.6Z"/><path class="cls-12" d="M27.69,36.8l12,11.78.16,5.55L24.61,39.59Z"/><path class="cls-13" d="M52,23.69,43.6,15.34l-.28-4.92h1.73L55.89,22.27Z"/><path class="cls-14" d="M102,88l-22.92.12-5.38,0-5.09-.38,4.58-4.8c4,.53,7.92,1.35,11.9,1.54,5.79.28,11.6.1,17.4.12Z"/><path class="cls-15" d="M73.71,88.12l5.38,0,18.15,18.37,0,5.1a6,6,0,0,1-1.58-.11Z"/><path class="cls-16" d="M93.9,60.82l11.79,11.72-1.3,4L91,63.77Z"/><path class="cls-16" d="M109.29,77.31l5.12,5.3-.09,1.93-5.2-.39Z"/><path class="cls-17" d="M109.12,84.15l5.2.39-1.78,3.62-6.32-.26Z"/><path class="cls-7" d="M99.24,12.48l-1.9,1.09L99,11.74Z"/><path class="cls-16" d="M56.26,27.17,60,25.63,70.15,36l-3.08,2.89Z"/><path class="cls-15" d="M70.2,79.56l-2.82,3L48.62,63.75l3-3Z"/><path class="cls-13" d="M88.09,60.67,70.25,42.13l2.76-3L90.76,57.6Z"/><path class="cls-18" d="M87.31,17l3.42-1.79Z"/></g></g></svg>