<svg xmlns="http://www.w3.org/2000/svg" viewBox="0 0 66.69 66.53"><defs><style>.cls-1{fill:#2296f2;}.cls-2{fill:#1665bf;}.cls-3{fill:#fea92c;}.cls-4{fill:#627f8c;}</style></defs><title>collaborate</title><g id="Layer_2" data-name="Layer 2"><g id="screen_1" data-name="screen 1"><path class="cls-1" d="M28.69,25.1,26.62,25C16.86,24.8,6.62,23.19,1,35.11L0,34q0-5.67,0-11.33C0,17.53,0,12.4.05,7.27.14,2.8,2.58.14,6.9.07c8.17-.13,16.35,0,24.52,0,3.55,0,5.53,2.1,6.93,5q0,5,0,9.91C38.36,23.33,36.91,24.84,28.69,25.1Z"/><path class="cls-2" d="M28.69,25.1c8.22-.25,9.66-1.77,9.67-10.14q0-5,0-9.91C45,5,51.64,5,58.29,5c6,0,8.37,2.31,8.4,8.2a247.65,247.65,0,0,1-.9,26.24,99.44,99.44,0,0,0-7-7.27,8.82,8.82,0,0,0-5-2.08C47.86,29.87,41.9,30,36,30,32.38,30,29.81,28.66,28.69,25.1Z"/><path class="cls-3" d="M13.24,53.34a8.32,8.32,0,1,1,.22-16.64,8.32,8.32,0,1,1-.22,16.64Z"/><path class="cls-3" d="M61.67,45a8.32,8.32,0,1,1-8.14-8.29A8.41,8.41,0,0,1,61.67,45Z"/><path class="cls-4" d="M26.37,66.53H.37c-1.28-4,1.42-5.74,4-7.29a16.55,16.55,0,0,1,18,0C24.94,60.74,27.59,62.55,26.37,66.53Z"/><path class="cls-4" d="M66.52,66.52H40.34c-.43-5.37,4.94-9.59,12.26-9.82C60.55,56.45,66.58,60.52,66.52,66.52Z"/></g></g></svg>