<svg xmlns="http://www.w3.org/2000/svg" viewBox="0 0 22.78 23.1"><defs><style>.cls-1{fill:#e9c10b;}.cls-2{fill:#7e9190;}.cls-3{fill:#b1bfc6;}.cls-4{fill:#fb9a07;}.cls-5{fill:red;}</style></defs><title>fav_tools</title><g id="Layer_2" data-name="Layer 2"><g id="screen_2" data-name="screen 2"><path class="cls-1" d="M13.43,10.45a20.49,20.49,0,0,0,4.46,3.84c.82.63,1.71,1.19,2.47,1.89a2.79,2.79,0,0,1-.08,4.49,2.65,2.65,0,0,1-4-.12c-.84-.89-1.48-2-2.26-2.92-1.11-1.38-2.26-2.72-3.4-4.08L9,12.2l3.26-3.26Z"/><path class="cls-2" d="M13.43,10.45,12.22,8.94l-.62-1.5a2,2,0,0,0,.48-2.28,3.57,3.57,0,0,1,1.31-4A4.7,4.7,0,0,1,18.21.33L15.51,2.84A3.54,3.54,0,0,0,18.36,6l2.8-2.69a4.8,4.8,0,0,1-1.47,5.42,2.84,2.84,0,0,1-2.62.74A2.91,2.91,0,0,0,13.43,10.45Z"/><path class="cls-2" d="M9,12.2l1.7,1.34-6,6.35A8.92,8.92,0,0,1,3.44,21a2.25,2.25,0,0,1-2.86-.18A2.25,2.25,0,0,1,.46,18a18.33,18.33,0,0,1,1.68-1.68l5.13-4.94ZM3.29,19a.87.87,0,0,0-1-.82.81.81,0,0,0-.79.87.86.86,0,0,0,.91.9A.86.86,0,0,0,3.29,19Z"/><path class="cls-3" d="M7.83,9.57A34.19,34.19,0,0,0,2,4.11,5.27,5.27,0,0,1,.67,2.42,9,9,0,0,1,.06.8L.77,0A9.6,9.6,0,0,1,2.44.64,5.12,5.12,0,0,1,4.13,2,34,34,0,0,0,9.6,7.79Z"/><path class="cls-4" d="M7.83,9.57,9.6,7.79c.6-.49,1.21-1,2-.35l.62,1.5L9,12.2l-1.68-.85C6.9,10.59,7.45,10.11,7.83,9.57Z"/><circle class="cls-1" cx="18.62" cy="18.95" r="4.16"/><path class="cls-5" d="M18.47,17.33c.18-.15.34-.3.52-.43a1.56,1.56,0,0,1,1.95.15,1.53,1.53,0,0,1,.39,1.87,3.94,3.94,0,0,1-.35.58A14.51,14.51,0,0,1,18.46,22a12.5,12.5,0,0,1-2.81-3,1.6,1.6,0,0,1,1.08-2.36,1.42,1.42,0,0,1,1.09.19C18,17,18.23,17.16,18.47,17.33Z"/></g></g></svg>