<svg xmlns="http://www.w3.org/2000/svg" viewBox="0 0 135.28 117.39"><defs><style>.cls-1{fill:#fefefe;}.cls-2{fill:#8fa3ad;}.cls-3{fill:#78909c;}.cls-4{fill:#617d8b;}.cls-5{fill:#ced7db;}.cls-6{fill:#455a64;}.cls-7{fill:#3e4e56;}.cls-8{fill:#f5f6f7;}.cls-9{fill:#37474f;}.cls-10{fill:#4bab50;}.cls-11{fill:#aab8bf;}</style></defs><title>manage</title><g id="Layer_2" data-name="Layer 2"><g id="screen_2" data-name="screen 2"><path class="cls-1" d="M121.85,114.94c9.09-1.64,13.26-5.41,13.3-13.28q.24-44.24,0-88.49c0-8-5.27-13-13.36-13.12-10.11-.17-20.22.11-30.33.19l-3.4-.1H77.57C57,.1,36.47,0,15.92,0,4.88,0,.08,4.94.05,16.1q-.1,41.39,0,82.78c0,10.2,3.18,13.82,13.4,16a10.44,10.44,0,0,0,.47,2.37q9.76.18,19.53,0a10.33,10.33,0,0,0,.48-2.37l43.64-.17H88.06l3.4-.1,9.82.28c.18.82.34,2.35.53,2.36q9.76.19,19.52,0C121.52,117.3,121.68,115.76,121.85,114.94Z"/><path class="cls-2" d="M88.07.15l3.4.1,34.16,10.64L124,36.39l-5-2.19-6.37-11.58C101.46,37.69,102,81,113.25,91.73l5.74-11,5-2.17,1.54,25.63-34.06,10.5-3.4.1Q88.06,57.46,88.07.15Z"/><path class="cls-3" d="M77.57,114.75l-43.64.17H13.46C3.23,112.7.08,109.08.05,98.88q-.1-41.39,0-82.78C.08,4.94,4.88,0,15.92,0,36.47,0,57,.1,77.57.15l0,10.15H11.05V104.6h66.5Z"/><path class="cls-4" d="M124,36.39l1.65-25.5L91.47.24C101.58.16,111.69-.11,121.8.05c8.08.13,13.31,5.13,13.36,13.12q.26,44.24,0,88.49c0,7.86-4.21,11.64-13.3,13.28H101.28l-9.82-.28,34.06-10.5L124,78.53Z"/><path class="cls-5" d="M77.57,114.75l0-10.15q0-47.15,0-94.31l0-10.15H88.07q0,57.31,0,114.61Z"/><path class="cls-6" d="M13.46,114.92H33.93a10.33,10.33,0,0,1-.48,2.37q-9.76.18-19.53,0A10.44,10.44,0,0,1,13.46,114.92Z"/><path class="cls-6" d="M101.28,114.94h20.58c-.18.82-.34,2.35-.53,2.36q-9.76.19-19.52,0C101.61,117.3,101.45,115.76,101.28,114.94Z"/><path class="cls-7" d="M119,80.69l-5.74,11c-11.27-10.72-11.79-54-.63-69.1L119,34.2A64.42,64.42,0,0,0,119,80.69Z"/><path class="cls-8" d="M119,80.69a64.42,64.42,0,0,1,0-46.49l5,2.19V78.53Z"/><path class="cls-9" d="M77.56,10.3q0,47.15,0,94.31H11.05V10.3Z"/><polygon class="cls-10" points="43.63 83.61 43.55 67.97 21.05 67.97 21.05 47.63 43.48 47.63 43.43 30.57 70.76 57.09 43.63 83.61"/><polygon class="cls-11" points="111.57 54.92 108.42 54.92 106.84 57.65 108.42 60.37 111.57 60.37 113.14 57.65 111.57 54.92"/><polygon class="cls-11" points="113.14 36.04 109.99 36.04 108.42 38.76 109.99 41.49 113.14 41.49 114.71 38.76 113.14 36.04"/><polygon class="cls-11" points="113.14 73.8 109.99 73.8 108.42 76.53 109.99 79.26 113.14 79.26 114.71 76.53 113.14 73.8"/></g></g></svg>