<svg xmlns="http://www.w3.org/2000/svg" viewBox="0 0 45 55.82"><defs><style>.cls-1{fill:#c8c1b4;}.cls-2{fill:#2dafb8;}.cls-3{fill:#289da7;}.cls-4{fill:#fff;}.cls-5{fill:#eae9ee;}.cls-6{fill:#c4c4c9;}.cls-7{fill:#d8d7dc;}.cls-8{fill:#ff3d00;}.cls-9{fill:#aaa;}.cls-10{fill:#51b155;}.cls-11{fill:#b2bfc4;}.cls-12{fill:#e57979;}.cls-13{fill:#f4c117;}.cls-14{fill:#575f55;}.cls-15{fill:#398f3d;}</style></defs><title>plan_generator</title><g id="Layer_2" data-name="Layer 2"><g id="screen_2" data-name="screen 2"><path class="cls-1" d="M3.17,55.82H39a2.16,2.16,0,0,0,.84-.17l.19-.09a2.16,2.16,0,0,0,.34-.23l.15-.14a2.16,2.16,0,0,0,.63-1.53V3.92A2.16,2.16,0,0,0,39,1.76H28.44V1H13.76v.76H3.17A2.16,2.16,0,0,0,1,3.92V53.66a2.16,2.16,0,0,0,2.16,2.16Z"/><path class="cls-2" d="M38,54.81H2.16A2.16,2.16,0,0,1,0,52.65V2.92A2.16,2.16,0,0,1,2.16.76H38a2.16,2.16,0,0,1,2.16,2.16V52.65A2.16,2.16,0,0,1,38,54.81Z"/><path class="cls-3" d="M38,.76h-18V54.81H38a2.16,2.16,0,0,0,2.16-2.16V2.92A2.16,2.16,0,0,0,38,.76Z"/><polygon class="cls-4" points="37.84 52.71 2.34 52.71 2.34 2.86 37.84 2.86 37.84 52.71 37.84 52.71"/><polygon class="cls-5" points="37.84 52.71 20.05 52.71 20.05 2.86 37.84 2.86 37.84 52.71 37.84 52.71"/><path class="cls-6" d="M12.45,2.09a.7.7,0,0,0-.7.7V5.21a.7.7,0,0,0,.7.7H27.64a.7.7,0,0,0,.7-.7V2.79a.7.7,0,0,0-.7-.7ZM27.64,6.67H12.45A1.46,1.46,0,0,1,11,5.21V2.79a1.46,1.46,0,0,1,1.46-1.46H27.64a1.46,1.46,0,0,1,1.46,1.46V5.21a1.46,1.46,0,0,1-1.46,1.46Z"/><polygon class="cls-5" points="27.44 3.24 12.75 3.24 12.75 0 27.44 0 27.44 3.24 27.44 3.24"/><polygon class="cls-7" points="27.44 3.24 20.07 3.24 20.07 0 27.44 0 27.44 3.24 27.44 3.24"/><polygon class="cls-8" points="19.54 16.09 19.54 20.55 15.08 20.55 15.08 25 10.62 25 10.62 20.55 6.16 20.55 6.16 16.09 10.62 16.09 10.62 11.63 15.08 11.63 15.08 16.09 19.54 16.09"/><rect class="cls-9" x="20.19" y="11.17" width="13.74" height="2.98"/><rect class="cls-9" x="6.23" y="35.66" width="27.7" height="2.98"/><rect class="cls-9" x="6.23" y="41.84" width="27.7" height="2.98"/><rect class="cls-9" x="6.23" y="29.48" width="27.7" height="2.98"/><rect class="cls-9" x="23.85" y="17.12" width="10.08" height="2.98"/><rect class="cls-9" x="20.19" y="23.3" width="13.74" height="2.98"/><path class="cls-10" d="M18.75,48.54a4.57,4.57,0,0,1,.34-1q8.1-12.92,16.24-25.82a4.14,4.14,0,0,1,.61-.62l1.77,1.28c-.48.66-1,1.3-1.44,2Q29.6,34.92,23,45.5c-.83,1.33-1.56,2.72-2.33,4.08Z"/><path class="cls-10" d="M41.76,24.77c-1.65,2.74-3.27,5.5-5,8.22q-5.46,8.75-11,17.46a18.91,18.91,0,0,1-1.35,1.69l-1.74-1.26c2.29-3.51,4.63-7,6.85-10.53C33,34.83,36.43,29.27,39.85,23.72Z"/><path class="cls-11" d="M41.76,24.77l-1.91-1-2.14-1.35-1.77-1.28,2-2.92,5.63,3.54Z"/><path class="cls-12" d="M43.55,21.72l-5.63-3.54c.67-.88,1.73-2.62,1.94-2.52A24.38,24.38,0,0,1,45,18.88C45.16,19,44.06,20.73,43.55,21.72Z"/><path class="cls-13" d="M22.72,50.88l1.74,1.26-3.15,1.8L18.5,52.16l.25-3.61,1.89,1Z"/><path class="cls-14" d="M18.5,52.16l2.81,1.78-3,1.76Z"/><path class="cls-15" d="M22.72,50.88l-2.08-1.31c.77-1.36,1.5-2.75,2.33-4.08Q29.6,34.92,36.27,24.37c.44-.69,1-1.33,1.44-2l2.14,1.35C36.43,29.27,33,34.83,29.57,40.35,27.34,43.89,25,47.37,22.72,50.88Z"/></g></g></svg>