<svg xmlns="http://www.w3.org/2000/svg" viewBox="0 0 71.89 84.99"><defs><style>.cls-1{fill:#ffc108;}.cls-2{fill:#dcdcdc;}.cls-3{fill:#f2f2f2;}.cls-4{fill:#fee800;}.cls-5{fill:#52a5db;}.cls-6{fill:#fff;}.cls-7{fill:#2f8fce;}</style></defs><title>medications</title><g id="Layer_2" data-name="Layer 2"><g id="screen_1" data-name="screen 1"><rect class="cls-1" x="4.1" y="5.27" width="46.7" height="73.84" rx="3.97" ry="3.97"/><rect class="cls-2" x="4.3" y="0.01" width="47.32" height="4.2"/><rect class="cls-3" x="4.1" y="25.77" width="46.7" height="33.23"/><path class="cls-3" d="M55.9,8v5.38L0,13.33V8a5.53,5.53,0,0,1,1.49-3.8A4.85,4.85,0,0,1,5.06,2.56l45.8,0A5.25,5.25,0,0,1,55.9,8Z"/><path d="M24.37,29.12a9.79,9.79,0,0,1,3.28.47,5.48,5.48,0,0,1,2,1.22,4.15,4.15,0,0,1,1,1.66,5.79,5.79,0,0,1,.29,1.8,5.62,5.62,0,0,1-.68,2.88,7.93,7.93,0,0,1-2.95,2.14l1.7,2.91h-3.3A21.24,21.24,0,0,0,24,39.75H21.29v6.94H18.36V29.12Zm.22,8.12A5.64,5.64,0,0,0,26.26,37a2.5,2.5,0,0,0,1-.59,2.13,2.13,0,0,0,.54-.92,4.25,4.25,0,0,0,.16-1.2,3.25,3.25,0,0,0-.18-1.12,2,2,0,0,0-.61-.86,3,3,0,0,0-1.14-.55,6.76,6.76,0,0,0-1.77-.2h-3v5.66Z"/><path d="M25.81,42.19h3.3l2.6,4.08,2.81-4.08h2.93l-4.16,6L37.83,55H34.59l-3-4.67L28.44,55h-3L30,48.34Z"/><path class="cls-4" d="M57.32,77.85h0A7.22,7.22,0,0,0,64.61,85h0a7.22,7.22,0,0,0,7.29-7.14V70.27H57.32"/><path class="cls-5" d="M71.89,70.27V62.68a7.22,7.22,0,0,0-7.29-7.14h0a7.22,7.22,0,0,0-7.29,7.14v7.58Z"/><path class="cls-6" d="M69.81,79.95a.88.88,0,0,0,.88-.87V64.31a.88.88,0,0,0-1.77,0V79.08a.88.88,0,0,0,.88.87Z"/><path class="cls-5" d="M26.84,72.13A11.44,11.44,0,1,0,38.28,60.92,11.33,11.33,0,0,0,26.84,72.13Z"/><path class="cls-7" d="M30.16,69.93H46.4a2.2,2.2,0,1,1,0,4.4H30.16a2.2,2.2,0,1,1,0-4.4Z"/><path class="cls-6" d="M46.43,67.23c-.64.82-1.53-.8-3.2-2.06s-3.49-1.7-2.84-2.52,2.52-.46,4.19.81,2.5,3,1.86,3.77Z"/></g></g></svg>