<svg xmlns="http://www.w3.org/2000/svg" viewBox="0 0 77.84 81.98"><defs><style>.cls-1{fill:#baddfa;}.cls-2{fill:#2195f2;}.cls-3{fill:#b0bec5;}.cls-4{fill:#1869c2;}.cls-5{font-size:48px;fill:#1565bf;font-family:SourceCodePro-Semibold, Source Code Pro;font-weight:700;}</style></defs><title>calendar</title><g id="Layer_2" data-name="Layer 2"><g id="screen_1" data-name="screen 1"><path class="cls-1" d="M77.82,26.76q0,22.23,0,44.46c0,5.66-3.1,8.76-8.74,8.77q-30.15,0-60.3,0C3.12,80,0,76.88,0,71.22Q0,49,0,26.76Z"/><path class="cls-2" d="M77.82,26.76H0C0,22.51,0,18.27,0,14c0-1.85-.28-4.42,1.56-5.8a9,9,0,0,1,6.16-2c2.89.09,5.78,0,8.67,0v4.09c-.68,1-1.75,1.85-2,2.92a5.33,5.33,0,0,0,2,5.67c1.78,1.22,3.64,2.35,6.21,1.22a6.45,6.45,0,0,0,3.94-4.41c.48-2,.27-4.17-1.94-5.4V6.29H53.25v4.09c-.68,1-1.75,1.85-2,2.92a5.33,5.33,0,0,0,2,5.67c1.78,1.22,3.64,2.35,6.21,1.22a6.45,6.45,0,0,0,3.94-4.41c.48-2,.27-4.17-1.94-5.4V6.29c2.2,0,4.41,0,6.61,0,5.71,0,9.65,3.95,9.76,9.8C77.88,19.64,77.82,23.2,77.82,26.76Z"/><path class="cls-3" d="M16.4,10.38V6.29c.27-1.54-.55-3.16.94-4.64C18.68.32,20.18-.41,21.7.24s3.2,1.79,2.9,4a15.58,15.58,0,0,0,0,2v4.09a35.22,35.22,0,0,1,0,4c-.24,2-3,4.33-4.82,4.18s-3.29-2.33-3.34-4.68C16.38,12.73,16.4,11.55,16.4,10.38Z"/><path class="cls-3" d="M61.44,6.29v4.09a35.22,35.22,0,0,1,0,4c-.24,2-3,4.33-4.82,4.18s-3.29-2.33-3.34-4.68c0-1.17,0-2.34,0-3.51V6.29c.27-1.54-.55-3.16.94-4.64C55.53.32,57-.41,58.56.24s3.2,1.79,2.9,4A15.58,15.58,0,0,0,61.44,6.29Z"/><path class="cls-4" d="M16.4,10.38c0,1.17,0,2.34,0,3.51,0,2.35,1.63,4.54,3.34,4.68s4.58-2.13,4.82-4.18a35.22,35.22,0,0,0,0-4c2.21,1.23,2.43,3.44,1.94,5.4a6.45,6.45,0,0,1-3.94,4.41c-2.57,1.13-4.43,0-6.21-1.22a5.33,5.33,0,0,1-2-5.67C14.65,12.24,15.72,11.35,16.4,10.38Z"/><path class="cls-4" d="M53.25,10.38c0,1.17,0,2.34,0,3.51,0,2.35,1.63,4.54,3.34,4.68s4.58-2.13,4.82-4.18a35.22,35.22,0,0,0,0-4c2.21,1.23,2.43,3.44,1.94,5.4a6.45,6.45,0,0,1-3.94,4.41c-2.57,1.13-4.43,0-6.21-1.22a5.33,5.33,0,0,1-2-5.67C51.5,12.24,52.57,11.35,53.25,10.38Z"/><text class="cls-5" transform="translate(10.58 67.96)">31</text></g></g></svg>