<svg xmlns="http://www.w3.org/2000/svg" viewBox="0 0 64.06 80"><defs><style>.cls-1{fill:#636363;}.cls-2{fill:#465b65;}.cls-3{fill:#91a5af;}.cls-4{fill:#424242;}.cls-5{fill:#475c66;}.cls-6{fill:#fefefd;}.cls-7{fill:#dedede;}.cls-8{fill:#fd5252;}.cls-9{fill:#f7f8f9;}.cls-10{fill:#9bcb65;}.cls-11{fill:#cedc3e;}.cls-12{fill:#50b051;}.cls-13{fill:#1565bf;}.cls-14{fill:#64b4f5;}.cls-15{fill:#33691e;}</style></defs><title>financials</title><g id="Layer_2" data-name="Layer 2"><g id="screen_1" data-name="screen 1"><path class="cls-1" d="M63.94,48c0,9.17.12,18.35.11,27.52C64,78.74,62.78,80,59.46,80c-8.88,0-17.76,0-26.38,0a4.62,4.62,0,0,1-2.8-5.25v-5.5L30.44,48ZM38.48,65.77C40.33,65.7,41,65,41,63s-.73-2.58-2.62-2.6c-2.05,0-2.85.84-2.71,2.94C35.76,65.17,36.56,65.85,38.48,65.77Zm8.88,0c1.85-.07,2.52-.81,2.49-2.72s-.73-2.58-2.62-2.6c-2.05,0-2.85.84-2.71,2.94C44.65,65.17,45.45,65.85,47.36,65.77Zm11.38-2.65c0-1.92-.67-2.62-2.54-2.67s-2.69.62-2.78,2.43c-.11,2.1.69,2.94,2.76,2.89C58,65.73,58.73,65,58.74,63.12ZM38.31,69.33c-1.91,0-2.62.67-2.67,2.55s.63,2.69,2.44,2.78c2.09.11,2.93-.7,2.89-2.77C40.93,70,40.22,69.33,38.31,69.33Zm11.54,2.78c.05-1.91-.63-2.69-2.44-2.78-2.1-.11-2.93.69-2.89,2.76,0,1.87.75,2.56,2.65,2.56S49.8,74,49.85,72.11Zm6.32-2.78c-1.92,0-2.68.62-2.77,2.45-.11,2.09.7,2.93,2.77,2.88,1.87,0,2.55-.76,2.55-2.67S58.05,69.37,56.18,69.33ZM56,56.89c1.86.05,2.69-.67,2.78-2.44s-.6-2.75-2.33-2.89c-2-.17-3,.67-3,2.66S54.13,56.84,56,56.89Zm-8.87-5.33c-1.88,0-2.56.74-2.56,2.65s.67,2.63,2.54,2.67c2.07.05,2.88-.79,2.78-2.87C49.77,52.2,49,51.52,47.09,51.56ZM41,54.11c0-1.87-.76-2.55-2.68-2.54s-2.61.69-2.65,2.56c0,2.07.8,2.87,2.89,2.76C40.35,56.79,41,56,41,54.11Z"/><path class="cls-2" d="M30.28,69.24v5.5c-7,0-13.93-.38-20.86,0C2.81,75.12-.1,71.12,0,65.56Q.45,40.93,0,16.28c-.1-5.65,2.82-9.89,9.38-9.14.44.05.88.06,1.33.09l.06,5.26c-.3,0-.59,0-.89,0-4.59-.33-4.48,1-4.47,4.45.06,16.28,0,32.55,0,48.83,0,3.21.34,3.55,3.53,3.56C16.08,69.33,23.18,69.27,30.28,69.24Z"/><path class="cls-3" d="M10.77,12.5l-.06-5.26H19.2C20,4.84,20.57,2.4,22.85,1.05a7.58,7.58,0,0,1,4.57-1c3.43.27,5.34,2.15,6.85,7.21h8.54l-.06,5.26c.31,2.4-.28,4.34-2.61,5.25H13.22A4.61,4.61,0,0,1,10.77,12.5ZM26.9,10.7A3.66,3.66,0,0,0,30.31,7a3.56,3.56,0,1,0-7.11.28A3.66,3.66,0,0,0,26.9,10.7Z"/><path class="cls-4" d="M63.94,48H30.44c0-3.23-.14-6.45-.11-9.68s1.19-4.45,4.44-4.5c4.4-.06,8.8,0,13.21-.06h5.53c2.19,0,4.39,0,6.58.06,2.65.1,3.92,1.37,4,4.08C64.1,41.25,64,44.62,63.94,48ZM34,44.23H60.31V37.62c-8.24-.66-23.39-.45-26.32.32Z"/><path class="cls-5" d="M53.51,33.75H48c0-6.05.1-12.11.08-18.16,0-2.64-.4-2.94-3.09-3.1-.74,0-1.48,0-2.22,0l.06-5.26c1.17,0,2.35-.12,3.52-.07,4.29.17,7,2.86,7.06,7.22C53.5,20.84,53.47,27.29,53.51,33.75Z"/><path class="cls-6" d="M42.75,12.5c.74,0,1.48-.05,2.22,0,2.69.16,3.08.46,3.09,3.1,0,6.05,0,12.11-.08,18.16-4.4,0-8.81,0-13.21.06-3.26,0-4.41,1.21-4.44,4.5s.07,6.45.11,9.68l-.15,21.26c-7.1,0-14.2.08-21.3.07-3.19,0-3.52-.35-3.53-3.56,0-16.28,0-32.55,0-48.83,0-3.47-.12-4.78,4.47-4.45.29,0,.59,0,.89,0a4.61,4.61,0,0,0,2.45,5.25H40.14C42.47,16.84,43.06,14.9,42.75,12.5ZM21.37,33.7h3.36V26.79l-3.23-.18-.22-1.47H18l-.18,3.25H14.4l-.27-5.29L11,23.32V33.7H21.37ZM17.9,42.77c-4.54,0-7.19,2.48-8.65,6.48-.95,2.59.47,7.65,2.77,9.08,2.7,1.69,5.46,3,9,1.48a8.5,8.5,0,0,0,5.69-8.28C26.54,45.88,23.56,42.89,17.9,42.77Z"/><path class="cls-7" d="M38.48,65.77c-1.91.08-2.72-.6-2.83-2.38-.14-2.1.65-3,2.71-2.94,1.89,0,2.59.71,2.62,2.6S40.33,65.7,38.48,65.77Z"/><path class="cls-7" d="M47.36,65.77c-1.91.08-2.72-.6-2.83-2.38-.14-2.1.65-3,2.71-2.94,1.89,0,2.59.71,2.62,2.6S49.21,65.7,47.36,65.77Z"/><path class="cls-7" d="M58.74,63.12c0,1.9-.69,2.61-2.57,2.65-2.07,0-2.87-.8-2.76-2.89.1-1.81.86-2.48,2.78-2.43S58.74,61.2,58.74,63.12Z"/><path class="cls-7" d="M38.31,69.33c1.9,0,2.62.69,2.66,2.56,0,2.07-.79,2.87-2.89,2.77-1.81-.09-2.49-.87-2.44-2.78S36.4,69.33,38.31,69.33Z"/><path class="cls-7" d="M49.85,72.11c-.05,1.87-.76,2.55-2.67,2.55s-2.61-.69-2.65-2.56c0-2.07.79-2.87,2.89-2.76C49.22,69.42,49.9,70.2,49.85,72.11Z"/><path class="cls-7" d="M56.18,69.33c1.87,0,2.56.75,2.56,2.66s-.68,2.62-2.55,2.67c-2.07.05-2.88-.79-2.77-2.88C53.5,70,54.26,69.29,56.18,69.33Z"/><path class="cls-8" d="M56,56.89c-1.82-.05-2.55-.82-2.55-2.67s1-2.82,3-2.66c1.73.14,2.43,1,2.33,2.89S57.81,56.94,56,56.89Z"/><path class="cls-7" d="M47.09,51.56c1.92,0,2.67.63,2.76,2.45.1,2.08-.71,2.92-2.78,2.87-1.87,0-2.55-.76-2.54-2.67S45.21,51.6,47.09,51.56Z"/><path class="cls-7" d="M41,54.11c0,1.92-.63,2.69-2.43,2.78-2.09.11-2.94-.69-2.89-2.76,0-1.88.75-2.56,2.65-2.56S40.92,52.23,41,54.11Z"/><path class="cls-9" d="M26.9,10.7a3.66,3.66,0,0,1-3.7-3.41A3.56,3.56,0,1,1,30.31,7,3.66,3.66,0,0,1,26.9,10.7Z"/><path class="cls-10" d="M34,44.23V37.94c2.92-.77,18.08-1,26.32-.32v6.61Zm21.27-1.5,3.62-.37-.49-3.29-3.13.28Z"/><path class="cls-11" d="M26.66,51.54A8.5,8.5,0,0,1,21,59.82c-3.5,1.49-6.25.21-9-1.48C9.72,56.9,8.3,51.84,9.25,49.26c1.47-4,4.12-6.53,8.65-6.48v8.76Z"/><path class="cls-12" d="M26.66,51.54H17.9V42.77C23.56,42.89,26.54,45.88,26.66,51.54Z"/><path class="cls-13" d="M14.26,33.7H11V23.32l3.13-.21.27,5.29Z"/><path class="cls-13" d="M17.8,28.39,18,25.14h3.3l.22,1.47-.13,7.09H17.94Z"/><path class="cls-14" d="M21.37,33.7l.13-7.09,3.23.18V33.7Z"/><path class="cls-14" d="M17.8,28.39l.13,5.31H14.26l.13-5.31Z"/><path class="cls-15" d="M55.27,42.73V39.35l3.13-.28.49,3.29Z"/></g></g></svg>