<svg xmlns="http://www.w3.org/2000/svg" viewBox="0 0 76.07 76.09"><defs><style>.cls-1{fill:#feb74f;}.cls-2{fill:#fe3f03;}.cls-3{fill:#eda741;}.cls-4{fill:#e39f3a;}.cls-5{fill:#feca7d;}</style></defs><title>caregivers</title><g id="Layer_2" data-name="Layer 2"><g id="screen_1" data-name="screen 1"><path class="cls-1" d="M68,48.17c3.14-.27,5.82.19,7.39,3.51,1,2.12,1,4-.79,5.34-2.86,2.18-5.87,4.17-8.92,6.07-6.12,3.81-12.36,7.43-18.46,11.27-3.24,2-6.38,2.34-9.75.51-8.78-4.77-17.63-9.4-26.32-14.34-2.55-1.45-4.43-1.32-6.58.43A36,36,0,0,1,.44,63.47C.27,62,.05,60.91,0,59.84c0-5,0-10,0-15,0-1.6.18-2.88,1.74-3.76,3.14-1.77,6.11-3.86,9.34-5.41a8,8,0,0,1,7.58.23c6.17,3.38,12.44,6.59,18.61,10,3,1.65,5.86,3.57,8.79,5.37l0,3.78c.43,2.32-.89,3.75-2.63,4.87a46,46,0,0,1-5.76,0c-1.05-.39-1.95-1.21-3-1.58-2.48-.86-4.52-2.88-7.61-3.19.2.88.16,1.47.43,1.71,2.06,1.85,4.19,3.63,6.29,5.42,2.75,2.34,7.52,2.49,10.59.73,5.73-3.3,11.45-6.62,17.09-10.07C63.73,51.53,65.82,49.77,68,48.17Z"/><path class="cls-2" d="M42,6C44.11,4.38,46,2.33,48.24,1.21A12.44,12.44,0,0,1,63.7,5.34c2.82,3.81,3.82,9.11-.45,14.66A79.84,79.84,0,0,1,55,29.25C51,33,46.7,36.41,42.3,40.19a74.31,74.31,0,0,1-6.23-4.83c-5-4.82-10.18-9.58-14.83-14.77-4.37-4.88-4.43-10.06-.71-15.44,3.22-4.66,9.69-6.32,15.07-4a15.54,15.54,0,0,1,3.27,2.17C39.94,4.09,40.88,5,42,6Z"/><path class="cls-3" d="M43.41,59.93c1.73-1.12,3.06-2.54,2.63-4.87a6.13,6.13,0,0,0,2.39-.14q5.66-3,11.18-6.25c.38-.22.33-1.16.48-1.77,2.6.62,5.56-1,7.91,1.27-2.19,1.6-4.28,3.35-6.58,4.76C55.78,56.38,50.07,59.71,44.34,63c-3.06,1.76-7.84,1.61-10.59-.73-2.11-1.79-4.23-3.58-6.29-5.42-.27-.24-.22-.83-.43-1.71,3.1.31,5.14,2.33,7.61,3.19,1.06.37,1.95,1.19,3,1.58a28.83,28.83,0,0,0,3,.1A21.54,21.54,0,0,0,43.41,59.93Z"/><path class="cls-4" d="M60.09,46.9c-.15.61-.11,1.54-.48,1.77q-5.52,3.25-11.18,6.25a6.13,6.13,0,0,1-2.39.14l0-3.78c2.7-1.57,5.32-3.29,8.11-4.67C56.07,45.67,58.2,45.2,60.09,46.9Z"/><path class="cls-5" d="M43.68,58.67c-1,0-2.64.43-3.64.43a9.15,9.15,0,0,1,.52-7.19s3.12-.77,4.08.1c.74.67.44,2.43.28,3.31A9.88,9.88,0,0,1,43.68,58.67Z"/></g></g></svg>