<svg xmlns="http://www.w3.org/2000/svg" viewBox="0 0 72.08 80"><defs><style>.cls-1{fill:#fe7043;}.cls-2{fill:#bf370d;}.cls-3{fill:#ab310c;}.cls-4{fill:#ae330e;}</style></defs><title>contacts</title><g id="Layer_2" data-name="Layer 2"><g id="screen_1" data-name="screen 1"><path class="cls-1" d="M12,.13C29.11.08,46.26,0,63.4,0,68.95,0,72,3.16,72,8.78Q72.14,40,72,71.21C72,76.84,68.95,80,63.4,80,46.26,80,29.11,79.92,12,79.87Q12,40,12,.13ZM53.72,55.79c1.12-5.61-2.56-7.87-5.91-9.75a15,15,0,0,0-17.28,1.1c-2.62,2-5.87,4.16-3.87,8.65ZM48,32.18A8,8,0,1,0,39.6,40,7.9,7.9,0,0,0,48,32.18Z"/><path class="cls-2" d="M12,.13Q12,40,12,79.87c-9.38.44-12-2-12-11.37Q0,40,0,11.48C0,2.12,2.58-.32,12,.13Z"/><path class="cls-3" d="M53.72,55.79H26.66c-2-4.49,1.25-6.69,3.87-8.65A15,15,0,0,1,47.81,46C51.16,47.92,54.84,50.18,53.72,55.79Z"/><path class="cls-4" d="M48,32.18A8,8,0,1,1,40.46,24,7.91,7.91,0,0,1,48,32.18Z"/></g></g></svg>