<svg xmlns="http://www.w3.org/2000/svg" viewBox="0 0 69.82 66.81"><defs><style>.cls-1{fill:#8fc9f8;}.cls-2{fill:#f34a3e;}.cls-3{fill:#57b35b;}</style></defs><title>to_do_list</title><g id="Layer_2" data-name="Layer 2"><g id="screen_1" data-name="screen 1"><path class="cls-1" d="M36.19,13.95H.08V7.51H36.19Z"/><path class="cls-1" d="M0,36.55V30.26H36.18v6.28Z"/><path class="cls-1" d="M36.28,53v6.41H.1V53Z"/><path class="cls-2" d="M51.74,56.27l-6.16-6.5,3.6-3.92,6.62,6.3,6.8-6.44,3.81,4.59L59.2,55.46,66.36,63l-3.87,3.66-6.65-6.28L49,66.81l-3.16-4.36Z"/><path class="cls-3" d="M55.22,11.28,65.72,0l4.09,3.86L54.5,17.95,44.18,7.46,47.39,4Z"/><path class="cls-3" d="M43.84,28.2,47.43,25l7.66,7.23L65.74,20.42l4.07,4.3-15.11,14Z"/></g></g></svg>