<svg xmlns="http://www.w3.org/2000/svg" viewBox="0 0 12.7 12.7"><defs><style>.cls-1{fill:#505050;}</style></defs><title>Asset 38</title><g id="Layer_2" data-name="Layer 2"><g id="screen_2" data-name="screen 2"><g id="Search"><path class="cls-1" d="M4.44,0A4.42,4.42,0,0,0,0,4.44,4.45,4.45,0,0,0,7.3,7.86l.32.32v.52l4,4,1.07-1.07-4-4H8.13l-.3-.3A4.45,4.45,0,0,0,4.44,0Zm0,1.27A3.14,3.14,0,0,1,7.62,4.44,3.14,3.14,0,0,1,4.44,7.62,3.14,3.14,0,0,1,1.27,4.44,3.14,3.14,0,0,1,4.44,1.27Z"/></g></g></g></svg>