<svg xmlns="http://www.w3.org/2000/svg" viewBox="0 0 36.9 50"><defs><style>.cls-1{fill:#c8c1b4;}.cls-2{fill:#2dafb8;}.cls-3{fill:#289da7;}.cls-4{fill:#fff;}.cls-5{fill:#eae9ee;}.cls-6{fill:#c4c4c9;}.cls-7{fill:#d8d7dc;}.cls-8{fill:#012841;}.cls-9{fill:#f06b26;}</style></defs><title>long_term_plan</title><g id="Layer_2" data-name="Layer 2"><g id="screen_1" data-name="screen 1"><path class="cls-1" d="M2.84,50H35a1.93,1.93,0,0,0,.75-.15l.17-.08a1.93,1.93,0,0,0,.31-.21l.14-.13a1.93,1.93,0,0,0,.57-1.37V3.51A1.94,1.94,0,0,0,35,1.58H25.48V.9H12.32v.68H2.84A1.94,1.94,0,0,0,.9,3.51V48.06A1.94,1.94,0,0,0,2.84,50Z"/><path class="cls-2" d="M34.06,49.1H1.94A1.94,1.94,0,0,1,0,47.16V2.61A1.94,1.94,0,0,1,1.94.68H34.06A1.94,1.94,0,0,1,36,2.61V47.16a1.94,1.94,0,0,1-1.94,1.94Z"/><path class="cls-3" d="M34.06.68H18V49.1H34.06A1.94,1.94,0,0,0,36,47.16V2.61A1.94,1.94,0,0,0,34.06.68Z"/><polygon class="cls-4" points="33.9 47.22 2.1 47.22 2.1 2.56 33.9 2.56 33.9 47.22 33.9 47.22"/><polygon class="cls-5" points="33.9 47.22 17.96 47.22 17.96 2.56 33.9 2.56 33.9 47.22 33.9 47.22"/><path class="cls-6" d="M11.15,1.87a.63.63,0,0,0-.63.63V4.66a.63.63,0,0,0,.63.63H24.76a.63.63,0,0,0,.63-.63V2.5a.63.63,0,0,0-.63-.63ZM24.76,6H11.15A1.31,1.31,0,0,1,9.84,4.66V2.5a1.31,1.31,0,0,1,1.31-1.31H24.76A1.31,1.31,0,0,1,26.07,2.5V4.66A1.31,1.31,0,0,1,24.76,6Z"/><polygon class="cls-5" points="24.58 2.9 11.42 2.9 11.42 0 24.58 0 24.58 2.9 24.58 2.9"/><polygon class="cls-7" points="24.58 2.9 17.98 2.9 17.98 0 24.58 0 24.58 2.9 24.58 2.9"/><path class="cls-8" d="M6.53,10.62a.63.63,0,0,0-.63.63V13a.63.63,0,0,0,.63.63H8.24A.63.63,0,0,0,8.86,13V11.25a.63.63,0,0,0-.63-.63ZM8.24,14H6.53a1,1,0,0,1-1-1V11.25a1,1,0,0,1,1-1H8.24a1,1,0,0,1,1,1V13a1,1,0,0,1-1,1Z"/><path class="cls-8" d="M6.53,17.21a.63.63,0,0,0-.63.63v1.71a.63.63,0,0,0,.63.63H8.24a.63.63,0,0,0,.63-.63V17.84a.63.63,0,0,0-.63-.63Zm1.71,3.37H6.53a1,1,0,0,1-1-1V17.84a1,1,0,0,1,1-1H8.24a1,1,0,0,1,1,1v1.71a1,1,0,0,1-1,1Z"/><path class="cls-8" d="M6.53,23.8a.63.63,0,0,0-.63.63v1.71a.63.63,0,0,0,.63.63H8.24a.63.63,0,0,0,.63-.63V24.43a.63.63,0,0,0-.63-.63Zm1.71,3.37H6.53a1,1,0,0,1-1-1V24.43a1,1,0,0,1,1-1H8.24a1,1,0,0,1,1,1v1.71a1,1,0,0,1-1,1Z"/><path class="cls-8" d="M6.53,30.39A.63.63,0,0,0,5.9,31v1.71a.63.63,0,0,0,.63.63H8.24a.63.63,0,0,0,.63-.63V31a.63.63,0,0,0-.63-.63Zm1.71,3.37H6.53a1,1,0,0,1-1-1V31a1,1,0,0,1,1-1H8.24a1,1,0,0,1,1,1v1.71a1,1,0,0,1-1,1Z"/><path class="cls-8" d="M6.53,37a.63.63,0,0,0-.63.63v1.71a.63.63,0,0,0,.63.63H8.24a.63.63,0,0,0,.63-.63V37.6A.63.63,0,0,0,8.24,37Zm1.71,3.37H6.53a1,1,0,0,1-1-1V37.6a1,1,0,0,1,1-1H8.24a1,1,0,0,1,1,1v1.71a1,1,0,0,1-1,1Z"/><polygon class="cls-9" points="7.94 13.54 5.99 11.87 6.39 11.4 7.89 12.7 10.88 9.54 11.32 9.96 7.94 13.54 7.94 13.54"/><polygon class="cls-9" points="7.94 20.14 5.99 18.47 6.39 18.01 7.89 19.3 10.88 16.14 11.32 16.56 7.94 20.14 7.94 20.14"/><polygon class="cls-9" points="7.94 26.75 5.99 25.07 6.39 24.61 7.89 25.9 10.88 22.74 11.32 23.16 7.94 26.75 7.94 26.75"/><polygon class="cls-8" points="30.3 10.99 15.19 10.99 15.19 10.58 30.3 10.58 30.3 10.99 30.3 10.99"/><polygon class="cls-8" points="30.3 12.31 15.19 12.31 15.19 11.9 30.3 11.9 30.3 12.31 30.3 12.31"/><polygon class="cls-8" points="26.63 13.63 15.19 13.63 15.19 13.22 26.63 13.22 26.63 13.63 26.63 13.63"/><polygon class="cls-8" points="30.3 17.58 15.19 17.58 15.19 17.17 30.3 17.17 30.3 17.58 30.3 17.58"/><polygon class="cls-8" points="30.3 18.9 15.19 18.9 15.19 18.49 30.3 18.49 30.3 18.9 30.3 18.9"/><polygon class="cls-8" points="26.63 20.21 15.19 20.21 15.19 19.81 26.63 19.81 26.63 20.21 26.63 20.21"/><polygon class="cls-8" points="30.3 24.17 15.19 24.17 15.19 23.76 30.3 23.76 30.3 24.17 30.3 24.17"/><polygon class="cls-8" points="30.3 25.48 15.19 25.48 15.19 25.08 30.3 25.08 30.3 25.48 30.3 25.48"/><polygon class="cls-8" points="26.63 26.8 15.19 26.8 15.19 26.39 26.63 26.39 26.63 26.8 26.63 26.8"/><polygon class="cls-8" points="30.3 30.76 15.19 30.76 15.19 30.35 30.3 30.35 30.3 30.76 30.3 30.76"/><polygon class="cls-8" points="30.3 32.07 15.19 32.07 15.19 31.66 30.3 31.66 30.3 32.07 30.3 32.07"/><polygon class="cls-8" points="26.63 33.39 15.19 33.39 15.19 32.98 26.63 32.98 26.63 33.39 26.63 33.39"/><polygon class="cls-8" points="30.3 37.34 15.19 37.34 15.19 36.94 30.3 36.94 30.3 37.34 30.3 37.34"/><polygon class="cls-8" points="30.3 38.66 15.19 38.66 15.19 38.25 30.3 38.25 30.3 38.66 30.3 38.66"/><polygon class="cls-8" points="26.63 39.98 15.19 39.98 15.19 39.57 26.63 39.57 26.63 39.98 26.63 39.98"/></g></g></svg>