<svg xmlns="http://www.w3.org/2000/svg" viewBox="0 0 46.7 50.37"><defs><style>.cls-1{fill:#3d5dbc;}.cls-2{fill:#feec59;}.cls-3{fill:#647dc9;}.cls-4{fill:#3b418f;}</style></defs><title>conditions</title><g id="Layer_2" data-name="Layer 2"><g id="screen_2" data-name="screen 2"><path class="cls-1" d="M7.59,50.37c0-1.5-.05-2.75,0-4A22,22,0,0,0,3.66,32.75c-7.84-11.9-2.5-27.57,10.6-31.64A24.1,24.1,0,0,1,28.53,1,16.54,16.54,0,0,1,40.64,13.93a37.41,37.41,0,0,0,5,11.74c1.73,2.79,1.45,3.73-1.63,4.95-1.7.67-2.54,1.5-2.48,3.41A46,46,0,0,1,41,39c-.38,4.73-3.52,7.09-8.23,6.17-.7-.14-1.42-.21-2.37-.35l-.27,5.52ZM24.64,36.08l.5-.63,0-2.56.05-1.26c.84-1.16,1.66-2.33,2.53-3.47s2.23-2.31,2.87-3.68a10.1,10.1,0,0,0-3.87-12.93,10.21,10.21,0,0,0-13.06,2.34c-3.42,4.34-3.06,9.6.81,13.63a47.93,47.93,0,0,1,3.21,4.12l.07,2.45.43,2.59c3.32,3.37,4.55,3.25,6.5-.61Z"/><path class="cls-2" d="M17.71,31.64a47.93,47.93,0,0,0-3.21-4.12c-3.87-4-4.23-9.29-.81-13.63a10.21,10.21,0,0,1,13.06-2.34,10.1,10.1,0,0,1,3.87,12.93c-.64,1.37-1.92,2.45-2.87,3.68s-1.69,2.31-2.53,3.47l-2.49-.15c0-2.51-.14-5,.05-7.52a9.19,9.19,0,0,1,1.28-3.31c.43-.83,2-1.43.61-2.47-.37-.28-1.5.39-2.25.69a5.58,5.58,0,0,0-1,.64l-2.53-1.91-.81.25c.11.76-.06,1.83.37,2.23,1.67,1.53,1.84,3.39,1.76,5.44s0,4,0,6Z"/><path class="cls-3" d="M25.18,32.9l0,2.56-.5.63.06,0-6.5.61-.43-2.59Z"/><path class="cls-4" d="M18.21,36.67l6.5-.61C22.76,39.92,21.54,40,18.21,36.67Z"/><path class="cls-4" d="M25.18,32.9l-7.4,1.19-.07-2.45,2.49-.15h2.54l2.49.15Z"/><path class="cls-4" d="M24.64,36.08l.5-.63Z"/></g></g></svg>