<svg xmlns="http://www.w3.org/2000/svg" viewBox="0 0 72.4 80"><defs><style>.cls-1{fill:#fe9700;}.cls-2{fill:#82d4f9;}.cls-3{fill:#b2e4fa;}.cls-4{fill:#53c2f4;}.cls-5{fill:#985e0b;}.cls-6{fill:#a6680b;}.cls-7{fill:#8d5709;}.cls-8{fill:#8e5400;}</style></defs><title>imp_files_and_pictures</title><g id="Layer_2" data-name="Layer 2"><g id="screen_1" data-name="screen 1"><path class="cls-1" d="M72.1,23.63c.1,3.5.27,7,.28,10.5q0,19.82,0,39.64c0,5.25-.94,6.21-6.07,6.22Q36.2,80,6.1,80C1.31,80,0,78.95,0,74.79,0,58.06,0,41.34,0,24.61a3.93,3.93,0,0,1,.25-1l7-.06,43-.06h8l6,.06Zm-36,8.1c-2.17,0-4.35-.07-6.51,0-2.55.11-3.58,1.11-3.47,3.17s1.36,2.86,3.32,2.85c4.51,0,9,0,13.53,0,2,0,3.18-.85,3.21-2.94s-1-3.07-3.06-3.08C40.82,31.73,38.48,31.74,36.14,31.73Z"/><path class="cls-2" d="M50.27,23.52c-4.76-3.31-9.54-6.59-14.26-10-1.68-1.2-3.21-2.6-4.81-3.91,2.87-1.85,10-6.59,10-6.59l6.05,7.49,11.08,13Z"/><path class="cls-3" d="M50.27,23.52l-43,.06L13,11.83C14.5,8.79,18.75,0,18.75,0L31.2,9.66l5.28,3.86S45.51,20.21,50.27,23.52Z"/><path class="cls-4" d="M58.29,23.53l-11.08-13c1.64-.86,5.14-3.34,5.14-3.34S61.57,19,64.33,22.7a2.73,2.73,0,0,1,0,.9Z"/><path class="cls-5" d="M13,11.83,7.28,23.59l-7,.06L7.81,11.59Z"/><path class="cls-6" d="M64.33,22.7,56,11.71l8.4.61Z"/><path class="cls-7" d="M64.33,22.7l.12-10.38L72.1,23.63l-7.82,0A2.73,2.73,0,0,0,64.33,22.7Z"/><path class="cls-8" d="M36.14,31.73c2.34,0,4.68,0,7,0,2,0,3.1,1,3.06,3.08S45,37.77,43,37.77c-4.51,0-9,0-13.53,0-2,0-3.2-.75-3.32-2.85s.91-3.06,3.47-3.17C31.8,31.66,34,31.73,36.14,31.73Z"/></g></g></svg>