<svg xmlns="http://www.w3.org/2000/svg" viewBox="0 0 45 60.98"><defs><style>.cls-1{fill:#c8c1b4;}.cls-2{fill:#2dafb8;}.cls-3{fill:#289da7;}.cls-4{fill:#fff;}.cls-5{fill:#eae9ee;}.cls-6{fill:#c4c4c9;}.cls-7{fill:#d8d7dc;}.cls-8{fill:#ff3d00;}.cls-9{fill:#aaa;}</style></defs><title>care_plan</title><g id="Layer_2" data-name="Layer 2"><g id="screen_2" data-name="screen 2"><path class="cls-1" d="M3.46,61H42.64a2.36,2.36,0,0,0,.92-.19l.21-.1a2.36,2.36,0,0,0,.38-.25l.17-.15A2.36,2.36,0,0,0,45,58.62V4.29a2.36,2.36,0,0,0-2.36-2.36H31.07V1.1H15v.83H3.46A2.36,2.36,0,0,0,1.1,4.29V58.62A2.36,2.36,0,0,0,3.46,61Z"/><path class="cls-2" d="M41.54,59.88H2.36A2.36,2.36,0,0,1,0,57.52V3.19A2.36,2.36,0,0,1,2.36.83H41.54A2.36,2.36,0,0,1,43.9,3.19V57.52a2.36,2.36,0,0,1-2.36,2.36Z"/><path class="cls-3" d="M41.54.83H21.93V59.88H41.54a2.36,2.36,0,0,0,2.36-2.36V3.19A2.36,2.36,0,0,0,41.54.83Z"/><polygon class="cls-4" points="41.34 57.58 2.56 57.58 2.56 3.13 41.34 3.13 41.34 57.58 41.34 57.58"/><polygon class="cls-5" points="41.34 57.58 21.9 57.58 21.9 3.13 41.34 3.13 41.34 57.58 41.34 57.58"/><path class="cls-6" d="M13.6,2.28a.77.77,0,0,0-.76.76V5.69a.77.77,0,0,0,.76.76H30.2A.77.77,0,0,0,31,5.69V3a.76.76,0,0,0-.76-.76Zm16.6,5H13.6A1.6,1.6,0,0,1,12,5.69V3a1.6,1.6,0,0,1,1.6-1.6H30.2A1.6,1.6,0,0,1,31.8,3V5.69a1.6,1.6,0,0,1-1.6,1.6Z"/><polygon class="cls-5" points="29.97 3.54 13.93 3.54 13.93 0 29.97 0 29.97 3.54 29.97 3.54"/><polygon class="cls-7" points="29.97 3.54 21.93 3.54 21.93 0 29.97 0 29.97 3.54 29.97 3.54"/><polygon class="cls-8" points="21.35 17.58 21.35 22.45 16.48 22.45 16.48 27.32 11.6 27.32 11.6 22.45 6.73 22.45 6.73 17.58 11.6 17.58 11.6 12.7 16.48 12.7 16.48 17.58 21.35 17.58"/><rect class="cls-9" x="22.06" y="12.2" width="15.01" height="3.25"/><rect class="cls-9" x="6.81" y="38.96" width="30.26" height="3.25"/><rect class="cls-9" x="6.81" y="45.71" width="30.26" height="3.25"/><rect class="cls-9" x="6.81" y="32.21" width="30.26" height="3.25"/><rect class="cls-9" x="26.06" y="18.7" width="11.01" height="3.25"/><rect class="cls-9" x="22.06" y="25.46" width="15.01" height="3.25"/></g></g></svg>