<svg xmlns="http://www.w3.org/2000/svg" viewBox="0 0 81.77 73.6"><defs><style>.cls-1{fill:#f34437;}.cls-2{fill:#475b65;}.cls-3{fill:#fefafa;}.cls-4{fill:#f34336;}</style></defs><title>appointment_essentials</title><g id="Layer_2" data-name="Layer 2"><g id="screen_1" data-name="screen 1"><path class="cls-1" d="M55.18,12.14c5.09.05,10.19.07,15.28.17,7.09.14,11.17,4,11.22,11q.15,19.62,0,39.25c-.06,7-4.15,10.95-11.25,11q-29.56.1-59.13,0C4,73.51.09,69.45.05,62.05q-.1-19.11,0-38.23c0-7.61,4-11.42,11.75-11.52,4.92-.07,9.85-.11,14.77-.16H55.18Zm6.11,31A20.42,20.42,0,1,0,40.67,63.35,20.43,20.43,0,0,0,61.29,43.13Z"/><path class="cls-2" d="M30.68,12.14H26.57c0-2.19,0-4.38,0-6.57C26.72,1.38,27.88.14,32,.07q8.85-.14,17.7,0c4.16.06,5.29,1.29,5.43,5.5.07,2.19,0,4.38,0,6.57H51.07V4.38H30.68Z"/><path class="cls-3" d="M61.29,43.13A20.42,20.42,0,1,1,41.07,22.51,20.45,20.45,0,0,1,61.29,43.13ZM36.56,46.88l.49,8h7.73l.39-7.63,7.71-.49V38.81h-7.7L44.7,31H37l-.39,7.62-7.71.5v7.74Z"/><path class="cls-4" d="M36.56,46.88H28.87V39.14l7.71-.5L37,31H44.7l.48,7.79h7.7v7.92l-7.71.49-.39,7.63H37Z"/></g></g></svg>