<svg xmlns="http://www.w3.org/2000/svg" viewBox="0 0 22 22"><defs><style>.cls-1{fill:#ccc;}</style></defs><title>settings</title><g id="Layer_2" data-name="Layer 2"><g id="screen_2" data-name="screen 2"><path class="cls-1" d="M22,12.66V9.28c-1.09-.16-2.17-.36-3.26-.53a8.2,8.2,0,0,0-.69-1.63c.63-.92,1.26-1.83,1.92-2.73L17.57,2c-.9.62-1.79,1.29-2.67,1.93a7.37,7.37,0,0,0-1.66-.69C13,2.16,12.87,1.07,12.66,0H9.28c-.16,1.09-.36,2.16-.53,3.25a8.27,8.27,0,0,0-1.64.67C6.21,3.28,5.31,2.65,4.42,2L2,4.39c.64.89,1.26,1.8,1.89,2.7a8.33,8.33,0,0,0-.69,1.64c-1.07.19-2.16.39-3.23.54v3.38c1.07.21,2.15.39,3.22.57a7.42,7.42,0,0,0,.7,1.66c-.64.89-1.27,1.79-1.92,2.67L4.39,20c.89-.66,1.79-1.27,2.69-1.9a8.06,8.06,0,0,0,1.66.67c.19,1.09.39,2.17.54,3.26h3.38c.21-1.07.39-2.16.57-3.25a8,8,0,0,0,1.65-.7c.9.63,1.83,1.26,2.72,1.92l2.4-2.4c-.63-.9-1.3-1.79-1.95-2.69a7.51,7.51,0,0,0,.67-1.65C19.81,13,20.91,12.87,22,12.66ZM11,14.08c-4,0-4-6.17,0-6.17S15,14.08,11,14.08Z"/></g></g></svg>