<svg xmlns="http://www.w3.org/2000/svg" viewBox="0 0 123.1 123.1"><defs><style>.cls-1{fill:#1f9958;}.cls-2{fill:#d64137;}.cls-3{fill:#3f7bef;}.cls-4{fill:#fad53f;}.cls-5{fill:#ececed;}.cls-6{fill:#cbc9c6;}.cls-7{fill:#f2f9f5;}.cls-8{fill:#782723;}.cls-9{fill:#cbc9c5;}</style></defs><title>find</title><g id="Layer_2" data-name="Layer 2"><g id="screen_2" data-name="screen 2"><path class="cls-1" d="M.22,112.33Q.1,67.52,0,22.71c0-6.86,3.68-10.36,10.5-10.35,18.9,0,37.79.1,56.69.16-7.37,11.39-7.16,23-1,34.77-2.59,2.46-5.22,4.87-7.76,7.38Q29.32,83.49.22,112.33ZM36.6,22.86C29,17,21,17.13,14.63,23a16.72,16.72,0,0,0-3,21,17.17,17.17,0,0,0,20.6,7.35C39.76,48.64,43,42.19,41.48,33c-14.06-1.89-15.15-1.51-14.64,5.44l7.29.82c-3.19,5.75-6.85,7.39-11.73,5.35-5.25-2.2-7.2-6.38-5.85-11.78,1.38-5.57,5.47-8.05,10.93-7.21C31.24,26.25,34.91,28.3,36.6,22.86Z"/><path class="cls-2" d="M66.21,47.3c-6.18-11.77-6.39-23.38,1-34.77C76,2.58,86.57-2.39,99.93,1.13c11.92,3.14,19.25,11,22.32,22.89,2.11,8.19.15,15.68-4.21,22.66-2.42,3.88-5.07,7.62-7.61,11.42C100.58,68.52,96,81.3,93.71,95.16L89.4,90.79c-1.2-12.6-6.76-23.18-15.13-32.44ZM103,30.55a10.76,10.76,0,0,0-21.52.51A10.76,10.76,0,1,0,103,30.55Z"/><path class="cls-3" d="M99.76,123l-89-.15,45.34-44.8c2.1,2.23,4.17,4.48,6.31,6.67Q81.07,103.89,99.76,123Z"/><path class="cls-4" d="M56.09,78.07l-45.34,44.8C2.66,122.66.43,120.43.22,112.33Q29.33,83.5,58.45,54.68c2.54-2.51,5.17-4.92,7.76-7.38l8.06,11.06-8.19,9.33Z"/><path class="cls-5" d="M56.09,78.07l10-10.39L89.4,90.79l4.31,4.37,16.94,17c-.39,6.87-2.88,11.63-10.9,10.82Q81.08,103.88,62.4,84.74C60.27,82.55,58.2,80.3,56.09,78.07Z"/><path class="cls-6" d="M110.65,112.2l-16.94-17C96,81.3,100.58,68.52,110.43,58.1Z"/><path class="cls-7" d="M36.6,22.86c-1.69,5.44-5.36,3.39-9.12,2.8-5.46-.85-9.54,1.63-10.93,7.21-1.34,5.41.61,9.59,5.85,11.78,4.88,2,8.54.4,11.73-5.35l-7.29-.82c-.52-6.94.57-7.33,14.64-5.44,1.55,9.15-1.72,15.6-9.29,18.32A17.17,17.17,0,0,1,11.59,44a16.72,16.72,0,0,1,3-21C21,17.13,29,17,36.6,22.86Z"/><path class="cls-8" d="M103,30.55a10.76,10.76,0,1,1-21.52.51A10.76,10.76,0,0,1,103,30.55Z"/><path class="cls-9" d="M89.4,90.79,66.08,67.68l8.19-9.33C82.64,67.62,88.2,78.19,89.4,90.79Z"/></g></g></svg>