<svg xmlns="http://www.w3.org/2000/svg" viewBox="0 0 81.3 68.1"><defs><style>.cls-1{fill:#c8c1b4;}.cls-2{fill:#c4c4c9;}.cls-3{fill:#eae9ee;}.cls-4{fill:#d8d7dc;}.cls-5{fill:#012841;}.cls-6{fill:#03233b;}.cls-12,.cls-7{fill:none;stroke:#25a3aa;}.cls-7{stroke-miterlimit:10;stroke-width:0.25px;}.cls-8{fill:#0c2b4b;}.cls-9{fill:#f06b26;}.cls-10{fill:#b02b3a;}.cls-11{fill:#848488;}.cls-12{stroke-linejoin:round;stroke-width:1.7px;}</style></defs><title>vitals</title><g id="Layer_2" data-name="Layer 2"><g id="screen_1" data-name="screen 1"><path class="cls-1" d="M81.3,4.45a3.2,3.2,0,0,0-.07-.65,3.06,3.06,0,0,0-.08-.31h0a3.19,3.19,0,0,0-.24-.57l-.16-.26a3.23,3.23,0,0,0-.39-.47,3.19,3.19,0,0,0-2.26-.94H4.45a3.2,3.2,0,0,0-3.2,3.2V58.22a3.2,3.2,0,0,0,3.2,3.2H17.93V66.5a1.6,1.6,0,0,0,1.6,1.6H63a1.6,1.6,0,0,0,1.6-1.6V61.42H78.1a3.2,3.2,0,0,0,3.2-3.2"/><path class="cls-2" d="M61.78,66.86H18.28a1.6,1.6,0,0,1-1.6-1.6V57.16a3.2,3.2,0,0,1,3.2-3.2H60.17a3.2,3.2,0,0,1,3.2,3.2v8.09a1.6,1.6,0,0,1-1.6,1.6Z"/><path class="cls-3" d="M76.86,60.18H3.2A3.2,3.2,0,0,1,0,57V3.2A3.2,3.2,0,0,1,3.2,0H76.86a3.2,3.2,0,0,1,3.2,3.2V57a3.2,3.2,0,0,1-3.2,3.2Z"/><path class="cls-4" d="M76.86,0H40V60.18H76.86a3.2,3.2,0,0,0,3.2-3.2V3.2A3.2,3.2,0,0,0,76.86,0Z"/><path class="cls-5" d="M73.54,52.1h-67a1.36,1.36,0,0,1-1.36-1.36V6.24A1.36,1.36,0,0,1,6.52,4.88h67A1.36,1.36,0,0,1,74.9,6.24v44.5a1.36,1.36,0,0,1-1.36,1.36Z"/><path class="cls-6" d="M73.54,4.88H40V52.1H73.54a1.36,1.36,0,0,0,1.36-1.36V6.24a1.36,1.36,0,0,0-1.36-1.36Z"/><path class="cls-7" d="M10.84,4.88V52.1M16.68,4.88V52.1M22.52,4.88V52.1M28.36,4.88V52.1M34.19,4.88V52.1M40,4.88V52.1M45.87,4.88V52.1M51.7,4.88V52.1M57.54,4.88V52.1M63.38,4.88V52.1M69.21,4.88V52.1M74.9,11H5.16M74.9,16.81H5.16M74.9,22.65H5.16M74.9,28.49H5.16M74.9,34.32H5.16M74.9,40.16H5.16M74.9,46H5.16"/><path class="cls-8" d="M9.53,57.63H6.44a1.28,1.28,0,0,1-1.28-1.28v-.13a1.28,1.28,0,0,1,1.28-1.28H9.53a1.28,1.28,0,0,1,1.28,1.28v.13a1.28,1.28,0,0,1-1.28,1.28Z"/><path class="cls-9" d="M16.78,57.63H13.69a1.28,1.28,0,0,1-1.28-1.28v-.13a1.28,1.28,0,0,1,1.28-1.28h3.09a1.28,1.28,0,0,1,1.28,1.28v.13a1.28,1.28,0,0,1-1.28,1.28Z"/><path class="cls-10" d="M24,57.63H20.94a1.28,1.28,0,0,1-1.28-1.28v-.13a1.28,1.28,0,0,1,1.28-1.28H24a1.28,1.28,0,0,1,1.28,1.28v.13A1.28,1.28,0,0,1,24,57.63Z"/><path class="cls-11" d="M73.55,57.63H67.39A1.35,1.35,0,0,1,66,56.29h0a1.35,1.35,0,0,1,1.35-1.35h6.16a1.35,1.35,0,0,1,1.35,1.35h0a1.35,1.35,0,0,1-1.35,1.35Z"/><path class="cls-12" d="M5.16,28.35H30.32s2.42-7.76,2.89-7.74S37.5,35.9,37.86,35.89c.6,0,2.89-17.05,3.41-17.06s3.29,18.75,3.94,18.84,3.42-9.32,3.42-9.32H74.9"/></g></g></svg>