<svg xmlns="http://www.w3.org/2000/svg" viewBox="0 0 85.48 52.56"><defs><style>.cls-1{fill:#9ea7d9;}.cls-2{fill:#e6e8f4;}.cls-3{fill:#4ca350;}.cls-4{fill:#3f51b4;}.cls-5{fill:none;stroke:#495ab8;stroke-miterlimit:10;stroke-width:2.27px;}</style></defs><title>payments</title><g id="Layer_2" data-name="Layer 2"><g id="screen_1" data-name="screen 1"><path class="cls-1" d="M0,0H85l.44,52.38L.25,52.56ZM3.76,48.85H81.7s-.15-14.08-.26-22.67c-.11-8.28-.21-18-.21-18H3.76Z"/><path class="cls-2" d="M3.76,48.85V8.14H81.24l.46,40.71Zm53.8-16c-1.05,6,6.09,5.5,6.47,10h3a9.79,9.79,0,0,1,3.54-3.74c4.61-3,4.55-8-.29-10.65-1.79-1-3.82-1.48-5.69-2.32s-2.94-2.28-1.69-4.42c4.25-.72,4.25-.72,6.76,2.74l3.78-.25c1.25-5.83-6.18-5.5-6.42-10h-3.2L63,17.17a3.43,3.43,0,0,1-.9.63c-2.94.76-4.92,2.28-4.92,5.64s2.05,4.92,4.66,6.12c1.55.72,3.18,1.27,4.77,1.88,2.06.79,2.36,2.18,1.53,4.09C65,36.88,62.8,36,61.8,32.88ZM9.9,17.89h37l-.36-3.5H9.9Zm24.46,4.75H9.76L10,26.17H34.35Z"/><path class="cls-3" d="M57.55,32.88H61.8c1,3.13,3.15,4,6.39,2.66.83-1.91.53-3.29-1.53-4.09-1.6-.61-3.22-1.17-4.77-1.88-2.61-1.2-4.67-2.84-4.66-6.12s2-4.89,4.92-5.64a3.43,3.43,0,0,0,.9-.63l.76-2.94H67c.24,4.48,7.68,4.15,6.42,10l-3.78.25C67.13,21,67.13,21,62.88,21.74c-1.25,2.14-.3,3.53,1.69,4.42s3.91,1.34,5.69,2.32c4.84,2.65,4.9,7.64.29,10.65A9.79,9.79,0,0,0,67,42.87H64C63.65,38.38,56.5,38.84,57.55,32.88Z"/><path class="cls-4" d="M9.9,17.89v-3.5H46.56l.36,3.5Z"/><path class="cls-4" d="M34.35,22.64v3.53H10l-.26-3.53Z"/><path class="cls-5" d="M8,39.25c1.19-2.49,3.68-3.69,5.62-3.09,2.23.69,3.61,3.72,2.82,4.83s-3.41.82-3.85-.15c-.57-1.26,2.32-4.56,5.8-5.24.26-.05,3.69-.67,5.9,1.5.39.38,1.67,1.64,1.31,3a3,3,0,0,1-3.84,1.78,2.33,2.33,0,0,1-1.5-2.06c.05-.8.75-1.29,1.87-2.06a11.19,11.19,0,0,1,8.05-2A7.91,7.91,0,0,1,33.67,37c.42.28,2.6,1.76,2.25,3.09-.29,1.08-2.09,1.4-2.62,1.5S30.8,42,30,40.93a2.83,2.83,0,0,1,.28-3c.88-1.3,2.49-1.54,4-1.78a14.18,14.18,0,0,1,3.37,0c1.7.12,2.57.18,3.09.66.89.8.49,1.8,1.4,2.34a3,3,0,0,0,2.06.09,5.85,5.85,0,0,0,2.15-.84"/></g></g></svg>