<svg xmlns="http://www.w3.org/2000/svg" viewBox="0 0 121.21 125.81"><defs><style>.cls-1{fill:#5d6cc0;}.cls-2{fill:#7a87ca;}.cls-3{fill:#feb850;}.cls-4{fill:#fcb64f;}.cls-5{fill:#fcb54f;}</style></defs><title>research</title><g id="Layer_2" data-name="Layer 2"><g id="screen_2" data-name="screen 2"><path class="cls-1" d="M113.63,89.14l-1.9,22.9-49,13.77c-.67-2.65-1.91-5.29-1.93-7.94-.15-20.2-.07-40.41-.06-60.61a159,159,0,0,1,56.93-12.89L115.8,69.59c-5.59.39-9.74,2.73-10.48,8.71S108.47,87.35,113.63,89.14Z"/><path class="cls-2" d="M60.76,57.26c0,20.2-.09,40.41.06,60.61,0,2.65,1.26,5.29,1.93,7.94a65.4,65.4,0,0,1-8-1.2c-14.43-4-28.82-8.05-44.92-12.58l-2-22.9c5.42-1.61,9-4.86,8.25-10.88S11.21,69.93,5.59,69.6L3.72,44.44A153.81,153.81,0,0,1,60.76,57.26Z"/><path class="cls-3" d="M86.13,25.52A25.4,25.4,0,1,1,61.25,0,25.46,25.46,0,0,1,86.13,25.52Z"/><path class="cls-4" d="M5.59,69.6c5.62.33,9.84,2.65,10.55,8.67S13.3,87.53,7.89,89.14C4.73,88.65,1,89.65.35,84.45-.7,75.77.49,71.72,5.59,69.6Z"/><path class="cls-5" d="M113.63,89.14c-5.16-1.79-9.07-4.7-8.31-10.83s4.89-8.33,10.48-8.71c1.72,1.27,4.63,2.3,4.93,3.84a44.27,44.27,0,0,1,.19,11.72C120.54,89.83,116.49,88.58,113.63,89.14Z"/></g></g></svg>