<svg xmlns="http://www.w3.org/2000/svg" viewBox="0 0 59.28 50.79"><defs><style>.cls-1{fill:#3a8f3d;}.cls-2{fill:#4caf50;}.cls-3{fill:#1e6023;}.cls-4{fill:#317e35;}.cls-5{fill:#8ac24a;}</style></defs><title>shop</title><g id="Layer_2" data-name="Layer 2"><g id="screen_2" data-name="screen 2"><path class="cls-1" d="M55.75,25.49c-1.45,7.32-2.92,14.64-4.35,22-.45,2.3-1.67,3.35-4.11,3.34q-17.7-.1-35.41,0c-2.36,0-3.65-.89-4.1-3.3C6.44,40.13,5,32.81,3.52,25.49Z"/><path class="cls-2" d="M55.75,25.49H3.52C.31,24.65-.32,23.58.13,20c.32-2.6,2-3,4.22-3,2.54.05,5.07,0,7.61,0H47.33c2.54,0,5.08.08,7.62,0,2.18,0,3.89.38,4.21,3C59.6,23.58,59,24.67,55.75,25.49Z"/><path class="cls-3" d="M47.33,17H39.4c-3-3.16-6.08-6.33-9.16-9.46-.26-.26-.84-.2-1.28-.28L26.78,2.14C29-.38,30-.65,31.87,1.21,37.08,6.42,42.19,11.72,47.33,17Z"/><path class="cls-4" d="M26.78,2.14,29,7.25,19.91,17H12Z"/><rect class="cls-5" x="20.53" y="34.15" width="18.22" height="5.75"/><rect class="cls-5" x="20.53" y="34.15" width="18.22" height="5.75" transform="translate(-7.38 66.67) rotate(-90)"/></g></g></svg>